<?xml version="1.0" encoding="UTF-8"?>
<svg version="1.1" xmlns="http://www.w3.org/2000/svg" width="1600" height="1600">
<path d="M0 0 C1.33243831 1.1225856 2.64660768 2.26737723 3.9375 3.4375 C4.54722656 3.97890625 5.15695312 4.5203125 5.78515625 5.078125 C21.93612082 20.27068068 27.20005126 40.95201586 27.8644104 62.37277222 C29.29334514 106.40484423 39.30438624 147.96233293 58.9375 187.4375 C59.34436035 188.26749512 59.7512207 189.09749023 60.17041016 189.95263672 C70.06793511 210.0191292 82.54749629 228.55462278 95.9375 246.4375 C96.60990723 247.33952148 96.60990723 247.33952148 97.29589844 248.25976562 C102.71284794 255.50150129 108.41817194 262.46726397 114.30078125 269.33203125 C116.65860229 272.09002903 118.92640381 274.91196369 121.1875 277.75 C126.69879836 284.52327723 132.74635269 290.78777329 138.75732422 297.11376953 C140.80154328 299.29259114 142.81495179 301.49733461 144.82579041 303.70690918 C152.56698313 312.18626123 160.65584922 320.30784706 168.78417969 328.41455078 C171.20103992 330.82600966 173.6124529 333.24282439 176.0234375 335.66015625 C177.58301251 337.21907102 179.1428974 338.77767586 180.703125 340.3359375 C181.76590668 341.40175552 181.76590668 341.40175552 182.85015869 342.48910522 C186.84457459 346.46504321 190.93544241 350.26616272 195.21453857 353.9347229 C197.57255878 355.99140201 199.75544057 358.19646599 201.9375 360.4375 C205.52239612 364.06631522 209.200436 367.4781286 213.07421875 370.79296875 C215.51918095 372.95089136 217.77918816 375.26652451 220.06201172 377.59326172 C221.87690749 379.3779171 223.74667141 381.04722524 225.67578125 382.70703125 C229.75208267 386.25143761 233.69955047 389.91509993 237.625 393.625 C239.0308817 394.94830806 240.43713661 396.27121972 241.84375 397.59375 C242.5346875 398.2434375 243.225625 398.893125 243.9375 399.5625 C246.81983877 402.26469259 249.71951027 404.94774143 252.625 407.625 C253.1514209 408.1101709 253.6778418 408.5953418 254.22021484 409.09521484 C255.7921704 410.54315789 257.36471439 411.99045865 258.9375 413.4375 C286.66044372 438.94399351 286.66044372 438.94399351 294.75 447.3125 C296.58946917 449.09941291 298.46327979 450.75264064 300.41186523 452.41625977 C305.68006252 457.01545842 310.59828385 461.9535867 315.53515625 466.90234375 C316.53813903 467.90465081 317.54127003 468.90680956 318.54454041 469.90882874 C320.63459138 471.99741534 322.72284888 474.08777388 324.80981445 476.17944336 C327.4644787 478.8398041 330.12360884 481.49564842 332.78411198 484.15016842 C334.85274949 486.21516606 336.91896699 488.28257204 338.98449516 490.3506794 C339.96322005 491.33006411 340.94266806 492.30872681 341.92289925 493.28660393 C346.93540581 498.28970749 351.84761201 503.31739469 356.43235779 508.71827698 C358.0282619 510.54117123 359.70795359 512.2415794 361.4375 513.9375 C364.45163582 516.90485323 367.23667333 520.01095292 369.99609375 523.21484375 C372.22554061 525.76726883 374.51751382 528.25637514 376.8125 530.75 C380.88609909 535.21623514 384.74577703 539.80671379 388.5390625 544.51171875 C390.71019279 547.16021482 392.93115851 549.74972839 395.18066406 552.33105469 C401.95454992 560.11465781 408.23126383 568.21864913 414.43847656 576.45800781 C415.78782608 578.23985242 417.15019282 580.00998122 418.5234375 581.7734375 C472.30500338 650.87143639 511.56135403 730.52929657 532.9375 815.4375 C533.38319336 817.202146 533.38319336 817.202146 533.83789062 819.00244141 C541.37378362 849.35534377 546.31501884 880.31982389 549.3125 911.4375 C549.39212982 912.26360779 549.47175964 913.08971558 549.55380249 913.94085693 C550.07340187 919.43561522 550.53052751 924.93328605 550.9375 930.4375 C550.9905127 931.14245605 551.04352539 931.84741211 551.09814453 932.57373047 C552.2922104 949.16395112 552.18304472 965.81333428 552.1875 982.4375 C552.18794186 983.19394176 552.18838371 983.95038353 552.18883896 984.72974777 C552.19578522 1007.4379787 551.87416774 1029.88675681 548.9375 1052.4375 C548.76326522 1053.84738318 548.58995369 1055.25738071 548.41748047 1056.66748047 C541.51415898 1112.55110234 527.56216306 1167.78927929 504.9375 1219.4375 C504.54079102 1220.34822266 504.14408203 1221.25894531 503.73535156 1222.19726562 C501.54937751 1227.19220717 499.30954753 1232.1595088 497.01708984 1237.10644531 C496.29705746 1238.66114211 495.58123551 1240.21779579 494.86962891 1241.77636719 C488.83084988 1255.00154154 482.10361236 1267.78923028 474.9375 1280.4375 C474.26823486 1281.62037598 474.26823486 1281.62037598 473.58544922 1282.82714844 C459.30943609 1307.81949692 442.90226639 1331.96058394 424.9375 1354.4375 C424.36209473 1355.16163086 423.78668945 1355.88576172 423.19384766 1356.63183594 C419.49393412 1361.27764778 415.7405455 1365.87579381 411.9375 1370.4375 C411.44330566 1371.03079102 410.94911133 1371.62408203 410.43994141 1372.23535156 C398.21141005 1386.85160735 385.01381537 1400.4527733 371.5625 1413.9375 C370.95067871 1414.55200012 370.33885742 1415.16650024 369.70849609 1415.79962158 C363.29719321 1422.23218951 356.89534834 1428.58979818 349.9375 1434.4375 C348.84257691 1435.38666929 347.74879738 1436.3371596 346.65625 1437.2890625 C312.30126441 1466.95999907 275.05786409 1492.58217554 235.15429688 1514.23291016 C233.69213729 1515.02743608 232.23243196 1515.82649757 230.77539062 1516.63037109 C168.08864526 1551.18156416 96.96606885 1571.79356212 26.1875 1580.75 C25.02573242 1580.89735596 23.86396484 1581.04471191 22.66699219 1581.1965332 C18.76123032 1581.65811833 14.85232437 1582.06268682 10.9375 1582.4375 C10.05383759 1582.52363556 9.17017517 1582.60977112 8.25973511 1582.69851685 C-9.60826061 1584.39052297 -27.41922589 1584.8027392 -45.35242844 1584.75555801 C-47.53590722 1584.74990707 -49.71937821 1584.74709326 -51.90286255 1584.74447632 C-73.42344395 1584.70699966 -94.69607654 1584.19680251 -116.0625 1581.4375 C-117.47533484 1581.26344166 -118.888261 1581.09012317 -120.30126953 1580.91748047 C-176.18117468 1574.01548654 -231.41819758 1560.06044664 -283.0625 1537.4375 C-283.97322266 1537.04079102 -284.88394531 1536.64408203 -285.82226562 1536.23535156 C-290.81720717 1534.04937751 -295.7845088 1531.80954753 -300.73144531 1529.51708984 C-302.28614211 1528.79705746 -303.84279579 1528.08123551 -305.40136719 1527.36962891 C-318.62654154 1521.33084988 -331.41423028 1514.60361236 -344.0625 1507.4375 C-345.24537598 1506.76823486 -345.24537598 1506.76823486 -346.45214844 1506.08544922 C-370.65111181 1492.26262984 -394.06738723 1476.42690047 -415.9140625 1459.13476562 C-417.96223025 1457.5167131 -420.02449109 1455.91907307 -422.09375 1454.328125 C-429.02352922 1448.98203735 -435.61682908 1443.36116236 -442.0625 1437.4375 C-443.35032181 1436.30810071 -444.64185422 1435.182915 -445.9375 1434.0625 C-455.98165861 1425.28663034 -465.56072069 1416.10127327 -474.97338867 1406.65698242 C-476.88672194 1404.73824495 -478.80540504 1402.82497246 -480.72460938 1400.91210938 C-486.71684564 1394.9235085 -492.60619908 1388.92545829 -498.0625 1382.4375 C-499.14238645 1381.19864798 -500.22444139 1379.96168304 -501.30859375 1378.7265625 C-502.37258641 1377.50537435 -503.43638938 1376.28402091 -504.5 1375.0625 C-505.02142578 1374.46695312 -505.54285156 1373.87140625 -506.08007812 1373.2578125 C-510.56150427 1368.1049912 -514.82546397 1362.79217325 -519.0625 1357.4375 C-519.64990967 1356.70080078 -520.23731934 1355.96410156 -520.8425293 1355.20507812 C-538.71379026 1332.67976403 -554.83559973 1308.42051349 -569.0625 1283.4375 C-569.48885742 1282.69081055 -569.91521484 1281.94412109 -570.35449219 1281.17480469 C-572.90215128 1276.69284744 -575.39929181 1272.18567395 -577.85791016 1267.65429688 C-578.65243608 1266.19213729 -579.45149757 1264.73243196 -580.25537109 1263.27539062 C-614.80656416 1200.58864526 -635.41856212 1129.46606885 -644.375 1058.6875 C-644.52235596 1057.52573242 -644.66971191 1056.36396484 -644.8215332 1055.16699219 C-645.28311886 1051.26122579 -645.68803832 1047.35236411 -646.0625 1043.4375 C-646.19170334 1042.10801834 -646.19170334 1042.10801834 -646.32351685 1040.75167847 C-647.99514665 1023.04126378 -648.4281419 1005.3885836 -648.38055801 987.61133575 C-648.37490484 985.46385117 -648.37209241 983.31637451 -648.36947632 981.16888428 C-648.33164121 959.78985669 -647.78630821 938.66460241 -645.0625 917.4375 C-644.88839946 916.01246252 -644.71508258 914.58732912 -644.54248047 913.16210938 C-641.91014652 891.66223288 -638.00284461 870.52197624 -633.0625 849.4375 C-632.76504883 848.15987793 -632.46759766 846.88225586 -632.16113281 845.56591797 C-612.17170737 761.03766107 -572.87014773 680.28026947 -520.0625 611.4375 C-519.57491211 610.79973633 -519.08732422 610.16197266 -518.58496094 609.50488281 C-512.44165267 601.49895355 -506.03591181 593.73606765 -499.46289062 586.08056641 C-498.05001887 584.422856 -496.65625414 582.75061348 -495.265625 581.07421875 C-473.25941786 554.69753235 -473.25941786 554.69753235 -459.0625 547.4375 C-458.16144531 546.97214844 -457.26039063 546.50679687 -456.33203125 546.02734375 C-447.34337309 541.67881096 -438.041536 539.01494874 -428.0625 538.4375 C-427.03962891 538.375625 -427.03962891 538.375625 -425.99609375 538.3125 C-406.0082941 537.72354089 -386.4956424 545.11990027 -371.375 558.0625 C-357.61527551 571.16794364 -348.34965543 589.2572721 -347.67773914 608.40998554 C-347.65815536 610.48346695 -347.65421409 612.55713967 -347.66377258 614.63069153 C-347.65712576 615.78519371 -347.65047893 616.9396959 -347.64363068 618.12918299 C-347.62512961 621.95836593 -347.62759731 625.78723285 -347.63012695 629.61645508 C-347.62275188 632.37697106 -347.61090266 635.13746371 -347.59924316 637.89796448 C-347.57654801 643.82093194 -347.56458784 649.74384094 -347.56011391 655.66684914 C-347.5536297 664.23029562 -347.53065267 672.79363685 -347.50377061 681.35704073 C-347.46058893 695.25371867 -347.43057308 709.15039217 -347.40893555 723.04711914 C-347.38789994 736.53900337 -347.3606024 750.03085121 -347.32495117 763.52270508 C-347.32275235 764.35564843 -347.32055352 765.18859179 -347.31828807 766.04677586 C-347.30721777 770.22579783 -347.29602508 774.40481948 -347.28477156 778.58384097 C-347.19170861 813.20169623 -347.12005417 847.81956817 -347.0625 882.4375 C-345.95841797 880.82137817 -345.95841797 880.82137817 -344.83203125 879.17260742 C-343.8464286 877.73351022 -342.86074732 876.29446686 -341.875 874.85546875 C-341.39224609 874.14837769 -340.90949219 873.44128662 -340.41210938 872.71276855 C-332.64895301 861.39041341 -324.0674661 850.78785467 -315.0625 840.4375 C-314.37172363 839.6338501 -314.37172363 839.6338501 -313.66699219 838.81396484 C-303.71611323 827.28363664 -293.30791661 818.55756047 -277.6875 816.5625 C-263.87324675 815.79613318 -252.24186588 819.77387262 -241.6875 828.6875 C-233.04714181 836.96726539 -228.12311005 847.02775939 -227.71301639 859.053442 C-227.64846903 862.78930598 -227.65032579 866.52347687 -227.66186523 870.25976562 C-227.65611378 871.94630416 -227.64902736 873.63283859 -227.64071655 875.31936646 C-227.62566459 878.93585523 -227.61982397 882.55219697 -227.62124443 886.16871643 C-227.62329007 891.9041858 -227.60362816 897.63946001 -227.58106995 903.37487793 C-227.54017471 914.52868766 -227.52152459 925.68248176 -227.50489807 936.83634949 C-227.48252132 951.00389828 -227.44866035 965.17140113 -227.39769894 979.33887625 C-227.37795165 985.02233721 -227.36820895 990.70569581 -227.36674678 996.38918972 C-227.36396489 999.94970075 -227.35306632 1003.51015677 -227.34023666 1007.07064438 C-227.33601484 1008.70144507 -227.33505691 1010.33225863 -227.33791161 1011.96306229 C-227.36135327 1027.11169481 -226.64614752 1042.22372369 -222 1056.75 C-221.46593649 1058.49563205 -220.93333273 1060.24171152 -220.40234375 1061.98828125 C-220.16241699 1062.7663916 -219.92249023 1063.54450195 -219.67529297 1064.34619141 C-218.9890155 1066.68828417 -218.46453722 1069.03024008 -218.0625 1071.4375 C-215.60875882 1072.11572509 -213.15317517 1072.78603586 -210.6953125 1073.44921875 C-208.05998254 1074.16614185 -205.43189298 1074.89916254 -202.8046875 1075.64453125 C-150.91727379 1090.13745113 -95.89175267 1083.51775464 -48.8125 1057.17871094 C-36.25128434 1049.90253574 -24.8674806 1041.22935307 -14.203125 1031.390625 C-12.46908742 1029.80847392 -10.71550618 1028.32803119 -8.875 1026.875 C-5.93176047 1024.32419241 -3.44371852 1021.65203644 -0.9453125 1018.671875 C0.39307177 1017.08358496 1.77900934 1015.53484292 3.1953125 1014.015625 C3.93523438 1013.18546875 4.67515625 1012.3553125 5.4375 1011.5 C6.1284375 1010.74847656 6.819375 1009.99695312 7.53125 1009.22265625 C10.56194833 1003.22018983 7.80502047 996.23833852 5.87036133 990.14550781 C-2.20335047 966.18481473 -15.38325355 946.27463983 -32.0625 927.4375 C-32.77535156 926.62539063 -33.48820313 925.81328125 -34.22265625 924.9765625 C-36.47741061 922.43943703 -38.76477112 919.93579633 -41.0625 917.4375 C-41.5879541 916.86161133 -42.1134082 916.28572266 -42.65478516 915.69238281 C-44.47126595 913.70511306 -46.29723727 911.72689481 -48.125 909.75 C-48.67124023 909.15147217 -49.21748047 908.55294434 -49.78027344 907.9362793 C-54.1367637 903.25553718 -58.74916554 898.8901117 -63.4296875 894.5390625 C-71.74732507 886.80207176 -79.81782663 878.83497061 -87.83862305 870.79174805 C-90.15102723 868.47391162 -92.46882898 866.16156696 -94.78710938 863.84960938 C-96.28677957 862.34927936 -97.78614006 860.8486397 -99.28515625 859.34765625 C-99.96441666 858.67042007 -100.64367706 857.9931839 -101.34352112 857.29542542 C-105.78107247 852.83630629 -109.96768827 848.21202264 -114.0625 843.4375 C-114.96343011 842.40485058 -115.86446499 841.37229255 -116.765625 840.33984375 C-127.7773518 827.52097774 -137.47723628 813.99702635 -146.0625 799.4375 C-146.41940918 798.83502441 -146.77631836 798.23254883 -147.14404297 797.61181641 C-172.26191109 754.6082329 -174.28008364 703.43412221 -161.92578125 656.0390625 C-156.62352303 636.74481529 -149.82571602 617.86971681 -142.0625 599.4375 C-147.88955108 592.92813423 -147.88955108 592.92813423 -153.79296875 586.48828125 C-159.81343996 580.00002476 -165.52829133 573.35069466 -171.0625 566.4375 C-171.99654903 565.29488016 -172.93149094 564.15298981 -173.8671875 563.01171875 C-216.33957066 510.94992231 -248.92719764 445.54615413 -249.265625 377.12890625 C-249.27272995 376.17316711 -249.2798349 375.21742798 -249.28715515 374.23272705 C-249.40440323 353.80030913 -249.48910171 333.63761665 -246.0625 313.4375 C-245.95315125 312.78233398 -245.84380249 312.12716797 -245.73114014 311.45214844 C-233.1351128 236.29883083 -202.28433047 165.27427504 -163.57128906 100.01025391 C-161.52477266 96.52057918 -159.57411155 92.98209659 -157.625 89.4375 C-147.12413685 70.5285077 -135.00285663 52.45775714 -123.0625 34.4375 C-122.47662109 33.550625 -121.89074219 32.66375 -121.28710938 31.75 C-115.11498076 22.43985314 -109.03831438 13.32630549 -101.0625 5.4375 C-99.96808594 4.2928125 -99.96808594 4.2928125 -98.8515625 3.125 C-91.88439965 -3.72642925 -83.96907984 -7.79731484 -75.0625 -11.5625 C-73.98613281 -12.02011719 -72.90976562 -12.47773438 -71.80078125 -12.94921875 C-47.95611314 -21.30805074 -19.81059573 -14.93362394 0 0 Z " fill="#E65100" transform="translate(848.0625,15.5625)"/>
<path d="M0 0 C9.11137848 6.81645856 15.58133738 16.96141818 17.98046875 28.13671875 C18.07942036 29.66067576 18.13460019 31.18783108 18.15625 32.71484375 C19.20510535 77.85596424 34.45351904 119.08399623 62.98046875 154.13671875 C63.7075 155.04421875 64.43453125 155.95171875 65.18359375 156.88671875 C67.42382453 159.65880288 69.69547473 162.40142461 71.98046875 165.13671875 C72.42616211 165.67409668 72.87185547 166.21147461 73.33105469 166.76513672 C79.44246458 174.1160261 85.75307824 181.12630933 92.61621094 187.78662109 C94.84972585 189.96039757 96.95122833 192.09876712 98.85546875 194.5703125 C101.2665532 197.48222883 103.94233481 199.77041249 106.80859375 202.22265625 C111.30567454 206.1859109 115.42696298 210.5458085 119.625 214.8203125 C123.61542403 218.85450718 127.68802286 222.69793951 131.98876953 226.39892578 C135.47497161 229.44069905 138.81225553 232.64007348 142.16796875 235.82421875 C147.28902366 240.66417894 152.42177511 245.48889834 157.60546875 250.26171875 C159.15969594 251.69408053 160.71377761 253.12659954 162.26765442 254.55934143 C163.36463369 255.56957948 164.46267109 256.57867049 165.5620575 257.58628845 C176.40565465 267.53193694 186.85346265 277.85503255 197.24462891 288.27050781 C200.0004823 291.03177159 202.76170903 293.78758235 205.5234375 296.54296875 C207.30110234 298.32129367 209.07845734 300.09992838 210.85546875 301.87890625 C211.66910889 302.69052216 212.48274902 303.50213806 213.32104492 304.33834839 C218.07606834 309.11278943 222.60120526 314.01671112 226.98046875 319.13671875 C228.01405851 320.31647841 229.04899522 321.49506092 230.0859375 322.671875 C294.18955096 395.8787776 332.49694722 485.29984696 332.61183167 619.90748596 C331.42657944 636.82068254 328.54360364 653.57418581 324.98046875 670.13671875 C324.84663788 670.76648621 324.71280701 671.39625366 324.57492065 672.04510498 C322.10947022 683.51784162 318.76106545 694.55538921 314.91796875 705.63671875 C314.63456635 706.45999664 314.35116394 707.28327454 314.05917358 708.13150024 C299.63019604 749.91817838 278.58530439 788.32640949 249.98046875 822.13671875 C249.20960938 823.09191406 248.43875 824.04710937 247.64453125 825.03125 C240.7330305 833.48373131 233.11395252 841.21901426 225.41796875 848.94921875 C224.88743896 849.48492493 224.35690918 850.0206311 223.81030273 850.5725708 C216.86953653 857.56663275 209.72119413 864.01878695 201.98046875 870.13671875 C200.74875661 871.14925519 199.5192532 872.16449057 198.29296875 873.18359375 C184.64915899 884.37337901 170.07750636 894.28288997 154.79003906 903.08935547 C152.98724642 904.13279589 151.19864445 905.19789267 149.41015625 906.265625 C129.35749148 918.07397352 107.89577745 926.68631987 85.90576172 934.13818359 C83.5247721 934.95092333 81.1583092 935.78896836 78.796875 936.65625 C58.62455351 943.86882806 37.15195798 947.37101147 15.98046875 950.13671875 C15.12259766 950.2553125 14.26472656 950.37390625 13.38085938 950.49609375 C-36.62564877 957.20087697 -90.28065339 951.06329049 -138.01953125 935.13671875 C-139.0245166 934.80446289 -140.02950195 934.47220703 -141.06494141 934.12988281 C-156.87456 928.83781582 -172.0445277 922.45386855 -187.01953125 915.13671875 C-187.84614258 914.73372559 -188.67275391 914.33073242 -189.52441406 913.91552734 C-210.02416309 903.80035344 -229.20928463 891.4403645 -247.01953125 877.13671875 C-248.39044922 876.06550781 -248.39044922 876.06550781 -249.7890625 874.97265625 C-252.22663948 873.0588236 -254.62572459 871.10495978 -257.01953125 869.13671875 C-257.95539063 868.38648438 -258.89125 867.63625 -259.85546875 866.86328125 C-268.32809143 859.93329295 -276.08257853 852.28934482 -283.83203125 844.57421875 C-284.63545456 843.77856003 -284.63545456 843.77856003 -285.45510864 842.96682739 C-292.44908627 836.02614385 -298.9033975 828.87886603 -305.01953125 821.13671875 C-306.02051675 819.91686826 -307.02404425 818.69909463 -308.03125 817.484375 C-335.37171311 784.08827207 -355.6808742 746.14128505 -369.01953125 705.13671875 C-369.51066406 703.65413574 -369.51066406 703.65413574 -370.01171875 702.14160156 C-375.22621949 686.31676803 -379.15656321 670.54655134 -382.01953125 654.13671875 C-382.17260742 653.28529297 -382.32568359 652.43386719 -382.48339844 651.55664062 C-383.45726852 646.09859122 -384.28832709 640.63231965 -385.01953125 635.13671875 C-385.12394531 634.38680664 -385.22835938 633.63689453 -385.3359375 632.86425781 C-389.30539396 603.1058959 -388.1879929 571.79674172 -384.01953125 542.13671875 C-383.89143066 541.19812012 -383.76333008 540.25952148 -383.63134766 539.29248047 C-376.74529059 489.68586547 -357.62814533 439.57576212 -330.23828125 397.63671875 C-328.57529621 395.08195615 -327.101388 392.47098206 -325.66015625 389.78515625 C-322.92531652 384.80293664 -319.67535147 380.30296717 -316.26953125 375.76171875 C-315.64900879 374.92809814 -315.02848633 374.09447754 -314.38916016 373.2355957 C-309.7642154 367.05476901 -305.02024964 361.01941315 -300.01953125 355.13671875 C-299.54773438 354.5761377 -299.0759375 354.01555664 -298.58984375 353.43798828 C-295.10770421 349.30073809 -291.58220462 345.20474527 -288.01953125 341.13671875 C-287.39304687 340.41097656 -286.7665625 339.68523437 -286.12109375 338.9375 C-277.66355199 329.75797297 -266.30745271 325.06918775 -254.0390625 324.1796875 C-239.90739943 323.9785901 -228.36532896 328.98813731 -218.2109375 338.71875 C-207.71429228 350.30060987 -206.57277368 363.02515245 -206.61889648 377.95898438 C-206.61314503 379.64552291 -206.60605861 381.33205734 -206.5977478 383.01858521 C-206.58269584 386.63507398 -206.57685522 390.25141572 -206.57827568 393.86793518 C-206.58032132 399.60340455 -206.56065941 405.33867876 -206.5381012 411.07409668 C-206.49720596 422.22790641 -206.47855584 433.38170051 -206.46192932 444.53556824 C-206.43955257 458.70311703 -206.4056916 472.87061988 -206.35473019 487.038095 C-206.3349829 492.72155596 -206.3252402 498.40491456 -206.32377803 504.08840847 C-206.32099614 507.6489195 -206.31009757 511.20937552 -206.29726791 514.76986313 C-206.29304609 516.40066382 -206.29208816 518.03147738 -206.29494286 519.66228104 C-206.31838452 534.81091356 -205.60317877 549.92294244 -200.95703125 564.44921875 C-200.42296774 566.1948508 -199.89036398 567.94093027 -199.359375 569.6875 C-199.11944824 570.46561035 -198.87952148 571.2437207 -198.63232422 572.04541016 C-197.94604675 574.38750292 -197.42156847 576.72945883 -197.01953125 579.13671875 C-194.56579007 579.81494384 -192.11020642 580.48525461 -189.65234375 581.1484375 C-187.01701379 581.8653606 -184.38892423 582.59838129 -181.76171875 583.34375 C-129.87430504 597.83666988 -74.84878392 591.21697339 -27.76953125 564.87792969 C-15.20831559 557.60175449 -3.82451185 548.92857182 6.83984375 539.08984375 C8.57388133 537.50769267 10.32746257 536.02724994 12.16796875 534.57421875 C15.11120828 532.02341116 17.59925023 529.35125519 20.09765625 526.37109375 C21.43604052 524.78280371 22.82197809 523.23406167 24.23828125 521.71484375 C24.97820312 520.8846875 25.718125 520.05453125 26.48046875 519.19921875 C27.17140625 518.44769531 27.86234375 517.69617187 28.57421875 516.921875 C31.60491708 510.91940858 28.84798922 503.93755727 26.91333008 497.84472656 C18.83961828 473.88403348 5.6597152 453.97385858 -11.01953125 435.13671875 C-11.73238281 434.32460938 -12.44523437 433.5125 -13.1796875 432.67578125 C-15.43444186 430.13865578 -17.72180237 427.63501508 -20.01953125 425.13671875 C-20.54498535 424.56083008 -21.07043945 423.98494141 -21.61181641 423.39160156 C-23.4282972 421.40433181 -25.25426852 419.42611356 -27.08203125 417.44921875 C-27.62827148 416.85069092 -28.17451172 416.25216309 -28.73730469 415.63549805 C-33.09379495 410.95475593 -37.70619679 406.58933045 -42.38671875 402.23828125 C-50.70435632 394.50129051 -58.77485788 386.53418936 -66.7956543 378.4909668 C-69.10805848 376.17313037 -71.42586023 373.86078571 -73.74414062 371.54882812 C-75.24381082 370.04849811 -76.74317131 368.54785845 -78.2421875 367.046875 C-78.92144791 366.36963882 -79.60070831 365.69240265 -80.30055237 364.99464417 C-84.73810372 360.53552504 -88.92471952 355.91124139 -93.01953125 351.13671875 C-93.92046136 350.10406933 -94.82149624 349.0715113 -95.72265625 348.0390625 C-106.73438305 335.22019649 -116.43426753 321.6962451 -125.01953125 307.13671875 C-125.37644043 306.53424316 -125.73334961 305.93176758 -126.10107422 305.31103516 C-151.21615682 262.31222065 -153.24252532 211.13216165 -140.8828125 163.7421875 C-134.05583258 138.90344056 -124.98406241 114.95196585 -113.01953125 92.13671875 C-112.50003906 91.14027344 -111.98054688 90.14382813 -111.4453125 89.1171875 C-99.87693561 66.99429147 -87.38879896 45.54942514 -73.64453125 24.69921875 C-73.27766205 24.13790253 -72.91079285 23.5765863 -72.5328064 22.9982605 C-63.36300952 9.01075393 -54.15909902 -2.60246476 -37.53125 -7.16015625 C-23.85587108 -9.89827439 -11.72597449 -7.23582126 0 0 Z " fill="#FEC006" transform="translate(827.01953125,507.86328125)"/>
<path d="M0 0 C0.66 0 1.32 0 2 0 C7.98213773 29.1928321 -1.17887162 60.67142569 -17.03515625 85.140625 C-21.52699891 91.53457996 -26.64981963 97.31665821 -32 103 C-32.53882813 103.60328125 -33.07765625 104.2065625 -33.6328125 104.828125 C-53.7474967 126.45899143 -84.41674084 136.81111538 -113.1953125 138.31640625 C-146.51130043 139.4169904 -176.3736744 126.46165118 -200.84765625 104.15625 C-210.99105414 93.99444304 -220.34518968 81.26276236 -226 68 C-225.67 67.01 -225.34 66.02 -225 65 C-223.78828125 65.38671875 -222.5765625 65.7734375 -221.328125 66.171875 C-168.62244842 82.68989888 -113.62554874 79.71584748 -64.1875 54.25 C-49.98993033 46.7337799 -37.15065809 37.49114906 -25 27 C-24.12730469 26.24976563 -23.25460937 25.49953125 -22.35546875 24.7265625 C-14.48292094 17.81005123 -8.06335721 10.2083874 -1.69921875 1.90625 C-1.13847656 1.2771875 -0.57773437 0.648125 0 0 Z " fill="#E65100" transform="translate(857,1022)"/>
</svg>
